M48
; DRILL file {KiCad 9.0.1} date 2026-02-09T08:34:14+0900
; FORMAT={-:-/ absolute / metric / decimal}
; #@! TF.CreationDate,2026-02-09T08:34:14+09:00
; #@! TF.GenerationSoftware,Kicad,Pcbnew,9.0.1
; #@! TF.FileFunction,MixedPlating,1,2
FMAT,2
METRIC
; #@! TA.AperFunction,Plated,PTH,ComponentDrill
T1C0.700
; #@! TA.AperFunction,Plated,PTH,ComponentDrill
T2C0.800
; #@! TA.AperFunction,Plated,PTH,ComponentDrill
T3C0.900
; #@! TA.AperFunction,Plated,PTH,ComponentDrill
T4C1.000
; #@! TA.AperFunction,Plated,PTH,ComponentDrill
T5C1.520
; #@! TA.AperFunction,NonPlated,NPTH,ComponentDrill
T6C3.200
%
G90
G05
T1
X22.606Y65.532
X22.606Y62.992
X22.606Y60.452
X22.606Y57.912
X22.606Y55.372
X22.606Y52.832
X22.606Y50.292
X22.606Y47.752
X22.606Y45.212
X22.606Y42.672
X22.606Y40.132
X22.606Y37.592
X22.606Y35.052
X45.466Y70.612
X45.466Y68.072
X45.466Y65.532
X45.466Y62.992
X45.466Y60.452
X45.466Y57.912
X45.466Y55.372
X45.466Y52.832
X45.466Y47.752
X45.466Y45.212
X45.466Y42.672
X45.466Y40.132
X45.466Y37.592
X45.466Y35.052
T2
X41.91Y3.302
X46.91Y3.302
X53.34Y31.242
X63.5Y31.242
T3
X53.38Y12.192
X55.88Y12.192
X58.38Y12.192
X66.04Y31.242
X68.58Y31.242
T4
X5.842Y60.452
X5.842Y56.642
X5.842Y52.832
X5.842Y49.022
X5.842Y45.212
X8.382Y60.452
X8.382Y56.642
X8.382Y52.832
X8.382Y49.022
X8.382Y45.212
X10.922Y60.452
X10.922Y56.642
X10.922Y52.832
X10.922Y49.022
X10.922Y45.212
X53.512Y22.352
X56.642Y70.358
X56.642Y66.548
X56.642Y62.738
X56.642Y58.674
X56.642Y54.864
X56.642Y51.054
X56.642Y47.244
X58.512Y22.352
X59.182Y70.358
X59.182Y66.548
X59.182Y62.738
X59.182Y58.674
X59.182Y54.864
X59.182Y51.054
X59.182Y47.244
X61.722Y70.358
X61.722Y66.548
X61.722Y62.738
X61.722Y58.674
X61.722Y54.864
X61.722Y51.054
X61.722Y47.244
T5
X55.88Y4.572
X60.96Y4.572
T6
X3.81Y74.676
X3.81Y3.556
X68.58Y74.676
X68.58Y3.556
M30
