%TF.GenerationSoftware,KiCad,Pcbnew,9.0.1*%
%TF.CreationDate,2026-02-09T08:32:13+09:00*%
%TF.ProjectId,SSP4,53535034-2e6b-4696-9361-645f70636258,rev?*%
%TF.SameCoordinates,PX5c0c740PY7b0df40*%
%TF.FileFunction,Copper,L2,Bot*%
%TF.FilePolarity,Positive*%
%FSLAX46Y46*%
G04 Gerber Fmt 4.6, Leading zero omitted, Abs format (unit mm)*
G04 Created by KiCad (PCBNEW 9.0.1) date 2026-02-09 08:32:13*
%MOMM*%
%LPD*%
G01*
G04 APERTURE LIST*
G04 Aperture macros list*
%AMOutline5P*
0 Free polygon, 5 corners , with rotation*
0 The origin of the aperture is its center*
0 number of corners: always 5*
0 $1 to $10 corner X, Y*
0 $11 Rotation angle, in degrees counterclockwise*
0 create outline with 5 corners*
4,1,5,$1,$2,$3,$4,$5,$6,$7,$8,$9,$10,$1,$2,$11*%
%AMOutline6P*
0 Free polygon, 6 corners , with rotation*
0 The origin of the aperture is its center*
0 number of corners: always 6*
0 $1 to $12 corner X, Y*
0 $13 Rotation angle, in degrees counterclockwise*
0 create outline with 6 corners*
4,1,6,$1,$2,$3,$4,$5,$6,$7,$8,$9,$10,$11,$12,$1,$2,$13*%
%AMOutline7P*
0 Free polygon, 7 corners , with rotation*
0 The origin of the aperture is its center*
0 number of corners: always 7*
0 $1 to $14 corner X, Y*
0 $15 Rotation angle, in degrees counterclockwise*
0 create outline with 7 corners*
4,1,7,$1,$2,$3,$4,$5,$6,$7,$8,$9,$10,$11,$12,$13,$14,$1,$2,$15*%
%AMOutline8P*
0 Free polygon, 8 corners , with rotation*
0 The origin of the aperture is its center*
0 number of corners: always 8*
0 $1 to $16 corner X, Y*
0 $17 Rotation angle, in degrees counterclockwise*
0 create outline with 8 corners*
4,1,8,$1,$2,$3,$4,$5,$6,$7,$8,$9,$10,$11,$12,$13,$14,$15,$16,$1,$2,$17*%
G04 Aperture macros list end*
%TA.AperFunction,ComponentPad*%
%ADD10Outline8P,-1.250000X0.540000X-0.890000X0.900000X0.890000X0.900000X1.250000X0.540000X1.250000X-0.540000X0.890000X-0.900000X-0.890000X-0.900000X-1.250000X-0.540000X0.000000*%
%TD*%
%TA.AperFunction,ComponentPad*%
%ADD11R,1.800000X1.800000*%
%TD*%
%TA.AperFunction,ComponentPad*%
%ADD12C,1.800000*%
%TD*%
%TA.AperFunction,ComponentPad*%
%ADD13R,1.700000X1.700000*%
%TD*%
%TA.AperFunction,ComponentPad*%
%ADD14O,1.700000X1.700000*%
%TD*%
%TA.AperFunction,ComponentPad*%
%ADD15C,1.600000*%
%TD*%
%TA.AperFunction,ComponentPad*%
%ADD16O,1.600000X1.600000*%
%TD*%
%TA.AperFunction,ComponentPad*%
%ADD17R,2.000000X2.000000*%
%TD*%
%TA.AperFunction,ComponentPad*%
%ADD18C,2.000000*%
%TD*%
%TA.AperFunction,ComponentPad*%
%ADD19C,1.400000*%
%TD*%
%TA.AperFunction,ComponentPad*%
%ADD20R,3.000000X3.000000*%
%TD*%
%TA.AperFunction,ComponentPad*%
%ADD21C,3.000000*%
%TD*%
%TA.AperFunction,Conductor*%
%ADD22C,1.800000*%
%TD*%
G04 APERTURE END LIST*
D10*
%TO.P,U4,1,PD0*%
%TO.N,unconnected-(U4-PD0-Pad1)*%
X22606000Y65532000D03*
%TO.P,U4,2,PD1*%
%TO.N,unconnected-(U4-PD1-Pad2)*%
X22606000Y62992000D03*
%TO.P,U4,3,PD2*%
%TO.N,m3*%
X22606000Y60452000D03*
%TO.P,U4,4,PD3*%
%TO.N,m1.1*%
X22606000Y57912000D03*
%TO.P,U4,5,PD4*%
%TO.N,m1.2*%
X22606000Y55372000D03*
%TO.P,U4,6,NC*%
%TO.N,unconnected-(U4-NC-Pad6)*%
X22606000Y52832000D03*
%TO.P,U4,7,NC*%
%TO.N,unconnected-(U4-NC-Pad7)*%
X22606000Y50292000D03*
%TO.P,U4,8,PD5*%
%TO.N,m1.3*%
X22606000Y47752000D03*
%TO.P,U4,9,PD6*%
%TO.N,m5*%
X22606000Y45212000D03*
%TO.P,U4,10,PD7*%
%TO.N,unconnected-(U4-PD7-Pad10)*%
X22606000Y42672000D03*
%TO.P,U4,11,GND*%
%TO.N,GND1*%
X22606000Y40132000D03*
%TO.P,U4,12,VCC*%
%TO.N,unconnected-(U4-VCC-Pad12)*%
X22606000Y37592000D03*
%TO.P,U4,13,VIN*%
%TO.N,+5V*%
X22606000Y35052000D03*
%TO.P,U4,14,PB0*%
%TO.N,unconnected-(U4-PB0-Pad14)*%
X45466000Y35052000D03*
%TO.P,U4,15,PB1*%
%TO.N,unconnected-(U4-PB1-Pad15)*%
X45466000Y37592000D03*
%TO.P,U4,16,PB2*%
%TO.N,m8*%
X45466000Y40132000D03*
%TO.P,U4,17,PB3*%
%TO.N,unconnected-(U4-PB3-Pad17)*%
X45466000Y42672000D03*
%TO.P,U4,18,PB4*%
%TO.N,m7*%
X45466000Y45212000D03*
%TO.P,U4,19,PB5*%
%TO.N,unconnected-(U4-PB5-Pad19)*%
X45466000Y47752000D03*
%TO.P,U4,20,ARFE*%
%TO.N,unconnected-(U4-ARFE-Pad20)*%
X45466000Y52832000D03*
%TO.P,U4,21,GND*%
%TO.N,GND1*%
X45466000Y55372000D03*
%TO.P,U4,22,PC0*%
%TO.N,m6*%
X45466000Y57912000D03*
%TO.P,U4,23,PC1*%
%TO.N,m2.3*%
X45466000Y60452000D03*
%TO.P,U4,24,PC2*%
%TO.N,m2.2*%
X45466000Y62992000D03*
%TO.P,U4,25,PC3*%
%TO.N,m2.1*%
X45466000Y65532000D03*
%TO.P,U4,26,PC4*%
%TO.N,m4*%
X45466000Y68072000D03*
%TO.P,U4,27,PC5*%
%TO.N,unconnected-(U4-PC5-Pad27)*%
X45466000Y70612000D03*
%TD*%
D11*
%TO.P,D1,1,K*%
%TO.N,GND1*%
X68580000Y31242000D03*
D12*
%TO.P,D1,2,A*%
%TO.N,Net-(D1-A)*%
X66040000Y31242000D03*
%TD*%
D13*
%TO.P,M1,1,PWM*%
%TO.N,m1.1*%
X10922000Y56642000D03*
D14*
%TO.P,M1,2,+*%
%TO.N,+5V*%
X8382000Y56642000D03*
%TO.P,M1,3,-*%
%TO.N,GND1*%
X5842000Y56642000D03*
%TD*%
D15*
%TO.P,C2,1*%
%TO.N,GND1*%
X41910000Y3302000D03*
%TO.P,C2,2*%
%TO.N,+5V*%
X46910000Y3302000D03*
%TD*%
D13*
%TO.P,M8,1,PWM*%
%TO.N,m2.2*%
X56642000Y62738000D03*
D14*
%TO.P,M8,2,+*%
%TO.N,+5V*%
X59182000Y62738000D03*
%TO.P,M8,3,-*%
%TO.N,GND1*%
X61722000Y62738000D03*
%TD*%
D13*
%TO.P,M12,1,PWM*%
%TO.N,m8*%
X56642000Y47244000D03*
D14*
%TO.P,M12,2,+*%
%TO.N,+5V*%
X59182000Y47244000D03*
%TO.P,M12,3,-*%
%TO.N,GND1*%
X61722000Y47244000D03*
%TD*%
D13*
%TO.P,M2,1,PWM*%
%TO.N,m1.2*%
X10922000Y52832000D03*
D14*
%TO.P,M2,2,+*%
%TO.N,+5V*%
X8382000Y52832000D03*
%TO.P,M2,3,-*%
%TO.N,GND1*%
X5842000Y52832000D03*
%TD*%
D15*
%TO.P,R1,1*%
%TO.N,+5V*%
X53340000Y31242000D03*
D16*
%TO.P,R1,2*%
%TO.N,Net-(D1-A)*%
X63500000Y31242000D03*
%TD*%
D13*
%TO.P,M4,1,PWM*%
%TO.N,m3*%
X10922000Y60452000D03*
D14*
%TO.P,M4,2,+*%
%TO.N,+5V*%
X8382000Y60452000D03*
%TO.P,M4,3,-*%
%TO.N,GND1*%
X5842000Y60452000D03*
%TD*%
D17*
%TO.P,C1,1*%
%TO.N,+5V*%
X53512323Y22352000D03*
D18*
%TO.P,C1,2*%
%TO.N,GND1*%
X58512323Y22352000D03*
%TD*%
D13*
%TO.P,M3,1,PWM*%
%TO.N,m1.3*%
X10922000Y49022000D03*
D14*
%TO.P,M3,2,+*%
%TO.N,+5V*%
X8382000Y49022000D03*
%TO.P,M3,3,-*%
%TO.N,GND1*%
X5842000Y49022000D03*
%TD*%
D13*
%TO.P,M10,1,PWM*%
%TO.N,m4*%
X56642000Y70358000D03*
D14*
%TO.P,M10,2,+*%
%TO.N,+5V*%
X59182000Y70358000D03*
%TO.P,M10,3,-*%
%TO.N,GND1*%
X61722000Y70358000D03*
%TD*%
D13*
%TO.P,M7,1,PWM*%
%TO.N,m2.1*%
X56642000Y66548000D03*
D14*
%TO.P,M7,2,+*%
%TO.N,+5V*%
X59182000Y66548000D03*
%TO.P,M7,3,-*%
%TO.N,GND1*%
X61722000Y66548000D03*
%TD*%
D19*
%TO.P,S1,1,NC*%
%TO.N,unconnected-(S1-NC-Pad1)*%
X58380000Y12192000D03*
%TO.P,S1,2,COM*%
%TO.N,VCC*%
X55880000Y12192000D03*
%TO.P,S1,3,NO*%
%TO.N,+5V*%
X53380000Y12192000D03*
%TD*%
D20*
%TO.P,J1,1,Pin_1*%
%TO.N,VCC*%
X55880000Y4572000D03*
D21*
%TO.P,J1,2,Pin_2*%
%TO.N,GND1*%
X60960000Y4572000D03*
%TD*%
D13*
%TO.P,M5,1,PWM*%
%TO.N,m5*%
X10922000Y45212000D03*
D14*
%TO.P,M5,2,+*%
%TO.N,+5V*%
X8382000Y45212000D03*
%TO.P,M5,3,-*%
%TO.N,GND1*%
X5842000Y45212000D03*
%TD*%
D13*
%TO.P,M6,1,PWM*%
%TO.N,m7*%
X56642000Y51054000D03*
D14*
%TO.P,M6,2,+*%
%TO.N,+5V*%
X59182000Y51054000D03*
%TO.P,M6,3,-*%
%TO.N,GND1*%
X61722000Y51054000D03*
%TD*%
D13*
%TO.P,M9,1,PWM*%
%TO.N,m2.3*%
X56642000Y58674000D03*
D14*
%TO.P,M9,2,+*%
%TO.N,+5V*%
X59182000Y58674000D03*
%TO.P,M9,3,-*%
%TO.N,GND1*%
X61722000Y58674000D03*
%TD*%
D13*
%TO.P,M11,1,PWM*%
%TO.N,m6*%
X56642000Y54864000D03*
D14*
%TO.P,M11,2,+*%
%TO.N,+5V*%
X59182000Y54864000D03*
%TO.P,M11,3,-*%
%TO.N,GND1*%
X61722000Y54864000D03*
%TD*%
D22*
%TO.N,+5V*%
X59182000Y33274000D02*
X57150000Y31242000D01*
X59182000Y47244000D02*
X59182000Y33274000D01*
X59182000Y70358000D02*
X59182000Y47244000D01*
X8382000Y45212000D02*
X8382000Y60452000D01*
X57150000Y31242000D02*
X53340000Y31242000D01*
X8382000Y49022000D02*
X8382000Y32512000D01*
X53380000Y23622000D02*
X53340000Y23622000D01*
%TO.N,VCC*%
X55880000Y12192000D02*
X55880000Y4572000D01*
%TO.N,m1.1*%
X10922000Y56642000D02*
X16764000Y56642000D01*
X18034000Y57912000D02*
X22606000Y57912000D01*
X16764000Y56642000D02*
X18034000Y57912000D01*
%TO.N,m3*%
X10922000Y60452000D02*
X22606000Y60452000D01*
%TO.N,m5*%
X10922000Y45212000D02*
X22606000Y45212000D01*
%TO.N,m7*%
X56642000Y51054000D02*
X52558000Y51054000D01*
X50800000Y46736000D02*
X49276000Y45212000D01*
X52558000Y51054000D02*
X50800000Y49296000D01*
X49276000Y45212000D02*
X45466000Y45212000D01*
X50800000Y49296000D02*
X50800000Y46736000D01*
%TO.N,m1.2*%
X22606000Y55372000D02*
X19812000Y55372000D01*
X19812000Y55372000D02*
X17272000Y52832000D01*
X17272000Y52832000D02*
X10922000Y52832000D01*
%TO.N,m4*%
X50546000Y68072000D02*
X45466000Y68072000D01*
X52832000Y70358000D02*
X50546000Y68072000D01*
X56642000Y70358000D02*
X52832000Y70358000D01*
%TO.N,m6*%
X53340000Y54864000D02*
X50292000Y57912000D01*
X50292000Y57912000D02*
X45466000Y57912000D01*
X56642000Y54864000D02*
X53340000Y54864000D01*
%TO.N,m8*%
X56642000Y43434000D02*
X53340000Y40132000D01*
X56642000Y47244000D02*
X56642000Y43434000D01*
X53340000Y40132000D02*
X45466000Y40132000D01*
%TO.N,Net-(D1-A)*%
X66040000Y31242000D02*
X63500000Y31242000D01*
%TO.N,m1.3*%
X14478000Y49022000D02*
X10922000Y49022000D01*
X22606000Y47752000D02*
X15748000Y47752000D01*
X15748000Y47752000D02*
X14478000Y49022000D01*
%TO.N,m2.1*%
X54102000Y66548000D02*
X56642000Y66548000D01*
X53086000Y65532000D02*
X54102000Y66548000D01*
X45466000Y65532000D02*
X53086000Y65532000D01*
%TO.N,m2.2*%
X56642000Y62738000D02*
X54356000Y62738000D01*
X54356000Y62738000D02*
X54102000Y62992000D01*
X54102000Y62992000D02*
X45466000Y62992000D01*
%TO.N,m2.3*%
X53594000Y58674000D02*
X56642000Y58674000D01*
X51816000Y60452000D02*
X53594000Y58674000D01*
X45466000Y60452000D02*
X51816000Y60452000D01*
%TD*%
%TA.AperFunction,Conductor*%
%TO.N,+5V*%
G36*
X21385948Y36302315D02*
G01*
X21394969Y36295933D01*
X21453859Y36250186D01*
X21588951Y36194229D01*
X21674370Y36183500D01*
X23537625Y36183499D01*
X23623048Y36194229D01*
X23758140Y36250186D01*
X23817020Y36295926D01*
X23882037Y36321506D01*
X23893090Y36322000D01*
X41786000Y36322000D01*
X41853039Y36302315D01*
X41898794Y36249511D01*
X41910000Y36198000D01*
X41910000Y32512000D01*
X54486000Y32512000D01*
X54553039Y32492315D01*
X54598794Y32439511D01*
X54610000Y32388000D01*
X54610000Y12831743D01*
X54596485Y12775449D01*
X54574694Y12732684D01*
X54506182Y12521825D01*
X54471500Y12302851D01*
X54471500Y11046000D01*
X54451815Y10978961D01*
X54399011Y10933206D01*
X54347500Y10922000D01*
X50800000Y10922000D01*
X50800000Y2156000D01*
X50780315Y2088961D01*
X50727511Y2043206D01*
X50676000Y2032000D01*
X44574000Y2032000D01*
X44506961Y2051685D01*
X44461206Y2104489D01*
X44450000Y2156000D01*
X44450000Y10922000D01*
X7744000Y10922000D01*
X7676961Y10941685D01*
X7631206Y10994489D01*
X7620000Y11046000D01*
X7620000Y36198000D01*
X7639685Y36265039D01*
X7692489Y36310794D01*
X7744000Y36322000D01*
X21318909Y36322000D01*
X21385948Y36302315D01*
G37*
%TD.AperFunction*%
%TD*%
%TA.AperFunction,Conductor*%
%TO.N,GND1*%
G36*
X73094539Y78211815D02*
G01*
X73140294Y78159011D01*
X73151500Y78107500D01*
X73151500Y124500D01*
X73131815Y57461D01*
X73079011Y11706D01*
X73027500Y500D01*
X124500Y500D01*
X57461Y20185D01*
X11706Y72989D01*
X500Y124500D01*
X500Y3677289D01*
X1959500Y3677289D01*
X1959500Y3434712D01*
X1991161Y3194215D01*
X2053947Y2959896D01*
X2146773Y2735795D01*
X2146776Y2735788D01*
X2268064Y2525711D01*
X2268066Y2525708D01*
X2268067Y2525707D01*
X2415733Y2333264D01*
X2415739Y2333257D01*
X2587256Y2161740D01*
X2587263Y2161734D01*
X2700321Y2074982D01*
X2779711Y2014064D01*
X2989788Y1892776D01*
X3213900Y1799946D01*
X3448211Y1737162D01*
X3628586Y1713416D01*
X3688711Y1705500D01*
X3688712Y1705500D01*
X3931289Y1705500D01*
X3979388Y1711833D01*
X4171789Y1737162D01*
X4406100Y1799946D01*
X4630212Y1892776D01*
X4840289Y2014064D01*
X5032738Y2161735D01*
X5204265Y2333262D01*
X5351936Y2525711D01*
X5473224Y2735788D01*
X5566054Y2959900D01*
X5628838Y3194211D01*
X5660500Y3434712D01*
X5660500Y3677288D01*
X5628838Y3917789D01*
X5566054Y4152100D01*
X5473224Y4376212D01*
X5351936Y4586289D01*
X5204265Y4778738D01*
X5204260Y4778744D01*
X5032743Y4950261D01*
X5032736Y4950267D01*
X4840293Y5097933D01*
X4840292Y5097934D01*
X4840289Y5097936D01*
X4630212Y5219224D01*
X4630205Y5219227D01*
X4406104Y5312053D01*
X4171785Y5374839D01*
X3931289Y5406500D01*
X3931288Y5406500D01*
X3688712Y5406500D01*
X3688711Y5406500D01*
X3448214Y5374839D01*
X3213895Y5312053D01*
X2989794Y5219227D01*
X2989785Y5219223D01*
X2779706Y5097933D01*
X2587263Y4950267D01*
X2587256Y4950261D01*
X2415739Y4778744D01*
X2415733Y4778737D01*
X2268067Y4586294D01*
X2146777Y4376215D01*
X2146773Y4376206D01*
X2053947Y4152105D01*
X1991161Y3917786D01*
X1959500Y3677289D01*
X500Y3677289D01*
X500Y60562851D01*
X6973500Y60562851D01*
X6973500Y32401150D01*
X7008182Y32182176D01*
X7076694Y31971318D01*
X7092984Y31939349D01*
X7106500Y31883053D01*
X7106500Y11046000D01*
X7106501Y11045991D01*
X7118235Y10936849D01*
X7118237Y10936837D01*
X7129443Y10885327D01*
X7164106Y10781180D01*
X7164109Y10781174D01*
X7243128Y10658219D01*
X7243134Y10658212D01*
X7288879Y10605419D01*
X7288882Y10605416D01*
X7399335Y10509706D01*
X7399337Y10509705D01*
X7399339Y10509703D01*
X7532287Y10448986D01*
X7599326Y10429301D01*
X7599330Y10429300D01*
X7744000Y10408500D01*
X43812500Y10408500D01*
X43879539Y10388815D01*
X43925294Y10336011D01*
X43936500Y10284500D01*
X43936500Y2156000D01*
X43936501Y2155991D01*
X43948235Y2046849D01*
X43948237Y2046837D01*
X43959443Y1995327D01*
X43994106Y1891180D01*
X43994109Y1891174D01*
X44073128Y1768219D01*
X44073134Y1768212D01*
X44118879Y1715419D01*
X44118882Y1715416D01*
X44118884Y1715414D01*
X44135657Y1700880D01*
X44229335Y1619706D01*
X44229337Y1619705D01*
X44229339Y1619703D01*
X44362287Y1558986D01*
X44429326Y1539301D01*
X44429330Y1539300D01*
X44574000Y1518500D01*
X44574003Y1518500D01*
X50675990Y1518500D01*
X50676000Y1518500D01*
X50785157Y1530236D01*
X50836668Y1541442D01*
X50871440Y1553016D01*
X50940820Y1576107D01*
X50940824Y1576110D01*
X50940827Y1576110D01*
X51063782Y1655129D01*
X51116586Y1700884D01*
X51212297Y1811339D01*
X51273014Y1944287D01*
X51292699Y2011326D01*
X51292700Y2011330D01*
X51313500Y2156000D01*
X51313500Y10284500D01*
X51333185Y10351539D01*
X51385989Y10397294D01*
X51437500Y10408500D01*
X54347500Y10408500D01*
X54414539Y10388815D01*
X54460294Y10336011D01*
X54471500Y10284500D01*
X54471500Y6704500D01*
X54451815Y6637461D01*
X54399011Y6591706D01*
X54347500Y6580500D01*
X54331345Y6580500D01*
X54270797Y6573989D01*
X54270795Y6573989D01*
X54133795Y6522889D01*
X54016739Y6435261D01*
X53929111Y6318205D01*
X53878011Y6181205D01*
X53878011Y6181203D01*
X53871500Y6120655D01*
X53871500Y3023346D01*
X53878011Y2962798D01*
X53878011Y2962796D01*
X53929111Y2825796D01*
X54016739Y2708739D01*
X54133796Y2621111D01*
X54270799Y2570011D01*
X54298050Y2567082D01*
X54331345Y2563501D01*
X54331362Y2563500D01*
X57428638Y2563500D01*
X57428654Y2563501D01*
X57455692Y2566409D01*
X57489201Y2570011D01*
X57626204Y2621111D01*
X57743261Y2708739D01*
X57830889Y2825796D01*
X57881989Y2962799D01*
X57885591Y2996308D01*
X57888499Y3023346D01*
X57888500Y3023363D01*
X57888500Y3677289D01*
X66729500Y3677289D01*
X66729500Y3434712D01*
X66761161Y3194215D01*
X66823947Y2959896D01*
X66916773Y2735795D01*
X66916776Y2735788D01*
X67038064Y2525711D01*
X67038066Y2525708D01*
X67038067Y2525707D01*
X67185733Y2333264D01*
X67185739Y2333257D01*
X67357256Y2161740D01*
X67357263Y2161734D01*
X67470321Y2074982D01*
X67549711Y2014064D01*
X67759788Y1892776D01*
X67983900Y1799946D01*
X68218211Y1737162D01*
X68398586Y1713416D01*
X68458711Y1705500D01*
X68458712Y1705500D01*
X68701289Y1705500D01*
X68749388Y1711833D01*
X68941789Y1737162D01*
X69176100Y1799946D01*
X69400212Y1892776D01*
X69610289Y2014064D01*
X69802738Y2161735D01*
X69974265Y2333262D01*
X70121936Y2525711D01*
X70243224Y2735788D01*
X70336054Y2959900D01*
X70398838Y3194211D01*
X70430500Y3434712D01*
X70430500Y3677288D01*
X70398838Y3917789D01*
X70336054Y4152100D01*
X70243224Y4376212D01*
X70121936Y4586289D01*
X69974265Y4778738D01*
X69974260Y4778744D01*
X69802743Y4950261D01*
X69802736Y4950267D01*
X69610293Y5097933D01*
X69610292Y5097934D01*
X69610289Y5097936D01*
X69400212Y5219224D01*
X69400205Y5219227D01*
X69176104Y5312053D01*
X68941785Y5374839D01*
X68701289Y5406500D01*
X68701288Y5406500D01*
X68458712Y5406500D01*
X68458711Y5406500D01*
X68218214Y5374839D01*
X67983895Y5312053D01*
X67759794Y5219227D01*
X67759785Y5219223D01*
X67549706Y5097933D01*
X67357263Y4950267D01*
X67357256Y4950261D01*
X67185739Y4778744D01*
X67185733Y4778737D01*
X67038067Y4586294D01*
X66916777Y4376215D01*
X66916773Y4376206D01*
X66823947Y4152105D01*
X66761161Y3917786D01*
X66729500Y3677289D01*
X57888500Y3677289D01*
X57888500Y6120638D01*
X57888499Y6120655D01*
X57885157Y6151730D01*
X57881989Y6181201D01*
X57830889Y6318204D01*
X57743261Y6435261D01*
X57626204Y6522889D01*
X57489203Y6573989D01*
X57428654Y6580500D01*
X57428638Y6580500D01*
X57412500Y6580500D01*
X57345461Y6600185D01*
X57299706Y6652989D01*
X57288500Y6704500D01*
X57288500Y11275061D01*
X57308185Y11342100D01*
X57360989Y11387855D01*
X57430147Y11397799D01*
X57493703Y11368774D01*
X57500181Y11362742D01*
X57592715Y11270208D01*
X57746608Y11158398D01*
X57826683Y11117598D01*
X57916092Y11072041D01*
X57916094Y11072041D01*
X57916097Y11072039D01*
X58013070Y11040531D01*
X58097008Y11013257D01*
X58284884Y10983500D01*
X58284889Y10983500D01*
X58475116Y10983500D01*
X58662991Y11013257D01*
X58843903Y11072039D01*
X59013392Y11158398D01*
X59167285Y11270208D01*
X59301792Y11404715D01*
X59413602Y11558608D01*
X59499961Y11728097D01*
X59558743Y11909009D01*
X59588500Y12096884D01*
X59588500Y12287117D01*
X59558743Y12474992D01*
X59499959Y12655908D01*
X59427584Y12797950D01*
X59413602Y12825392D01*
X59301792Y12979285D01*
X59167285Y13113792D01*
X59013392Y13225602D01*
X58843907Y13311960D01*
X58662991Y13370744D01*
X58475116Y13400500D01*
X58475111Y13400500D01*
X58284889Y13400500D01*
X58284884Y13400500D01*
X58097008Y13370744D01*
X57916092Y13311960D01*
X57746607Y13225602D01*
X57658806Y13161811D01*
X57592715Y13113792D01*
X57592713Y13113790D01*
X57592712Y13113790D01*
X57458210Y12979288D01*
X57458210Y12979287D01*
X57458208Y12979285D01*
X57354870Y12837053D01*
X57343534Y12821450D01*
X57341849Y12822674D01*
X57296480Y12781661D01*
X57227546Y12770266D01*
X57163394Y12797950D01*
X57132125Y12837053D01*
X57084656Y12930216D01*
X57049005Y12979285D01*
X56954343Y13109576D01*
X56797576Y13266343D01*
X56618215Y13396657D01*
X56610673Y13400500D01*
X56420680Y13497307D01*
X56209824Y13565818D01*
X55990851Y13600500D01*
X55769149Y13600500D01*
X55700904Y13589691D01*
X55550175Y13565818D01*
X55452346Y13534032D01*
X55339324Y13497308D01*
X55339321Y13497307D01*
X55339319Y13497306D01*
X55303793Y13479205D01*
X55235124Y13466310D01*
X55170384Y13492588D01*
X55130128Y13549695D01*
X55123500Y13589691D01*
X55123500Y29709500D01*
X55143185Y29776539D01*
X55195989Y29822294D01*
X55247500Y29833500D01*
X57260850Y29833500D01*
X57260851Y29833500D01*
X57479824Y29868182D01*
X57690676Y29936692D01*
X57888215Y30037343D01*
X58067576Y30167657D01*
X58224343Y30324424D01*
X59252770Y31352851D01*
X62091500Y31352851D01*
X62091500Y31131150D01*
X62126182Y30912176D01*
X62194693Y30701320D01*
X62295343Y30503785D01*
X62425657Y30324424D01*
X62582424Y30167657D01*
X62761785Y30037343D01*
X62855114Y29989790D01*
X62959319Y29936694D01*
X62959321Y29936694D01*
X62959324Y29936692D01*
X63170176Y29868182D01*
X63389149Y29833500D01*
X63389150Y29833500D01*
X66150850Y29833500D01*
X66150851Y29833500D01*
X66369824Y29868182D01*
X66580676Y29936692D01*
X66778215Y30037343D01*
X66957576Y30167657D01*
X67114343Y30324424D01*
X67244657Y30503785D01*
X67345308Y30701324D01*
X67413818Y30912176D01*
X67448500Y31131149D01*
X67448500Y31352851D01*
X67413818Y31571824D01*
X67345308Y31782676D01*
X67345306Y31782679D01*
X67345306Y31782681D01*
X67244656Y31980216D01*
X67114343Y32159576D01*
X66957576Y32316343D01*
X66778215Y32446657D01*
X66580680Y32547307D01*
X66369824Y32615818D01*
X66150851Y32650500D01*
X63389149Y32650500D01*
X63279662Y32633159D01*
X63170175Y32615818D01*
X62959319Y32547307D01*
X62761784Y32446657D01*
X62699150Y32401150D01*
X62582424Y32316343D01*
X62582422Y32316341D01*
X62582421Y32316341D01*
X62425659Y32159579D01*
X62425659Y32159578D01*
X62425657Y32159576D01*
X62369692Y32082548D01*
X62295343Y31980216D01*
X62194693Y31782681D01*
X62126182Y31571825D01*
X62091500Y31352851D01*
X59252770Y31352851D01*
X60256343Y32356424D01*
X60386657Y32535785D01*
X60487308Y32733324D01*
X60555818Y32944176D01*
X60568698Y33025500D01*
X60590500Y33163149D01*
X60590500Y47354851D01*
X60590500Y70468851D01*
X60555818Y70687824D01*
X60487308Y70898676D01*
X60487306Y70898679D01*
X60487306Y70898681D01*
X60386656Y71096216D01*
X60256343Y71275576D01*
X60099576Y71432343D01*
X59920215Y71562657D01*
X59903329Y71571261D01*
X59722680Y71663307D01*
X59511824Y71731818D01*
X59511818Y71731819D01*
X59292851Y71766500D01*
X59071149Y71766500D01*
X58961662Y71749159D01*
X58852175Y71731818D01*
X58641319Y71663307D01*
X58443784Y71562657D01*
X58264425Y71432344D01*
X58172609Y71340528D01*
X58111285Y71307044D01*
X58041594Y71312028D01*
X57985660Y71353900D01*
X57968748Y71384872D01*
X57942889Y71454204D01*
X57855261Y71571261D01*
X57738204Y71658889D01*
X57726351Y71663310D01*
X57601203Y71709989D01*
X57540654Y71716500D01*
X57540638Y71716500D01*
X57038608Y71716500D01*
X57000290Y71722569D01*
X56983625Y71727984D01*
X56971822Y71731819D01*
X56794058Y71759974D01*
X56752851Y71766500D01*
X52721149Y71766500D01*
X52648158Y71754940D01*
X52502174Y71731818D01*
X52291325Y71663310D01*
X52093784Y71562657D01*
X51914420Y71432341D01*
X49998900Y69516819D01*
X49937577Y69483334D01*
X49911219Y69480500D01*
X47142990Y69480500D01*
X47075951Y69500185D01*
X47030196Y69552989D01*
X47020252Y69622147D01*
X47049277Y69685703D01*
X47055309Y69692181D01*
X47105002Y69741874D01*
X47157814Y69809859D01*
X47213771Y69944951D01*
X47224500Y70030370D01*
X47224501Y71193625D01*
X47213771Y71279048D01*
X47157814Y71414140D01*
X47157813Y71414143D01*
X47105005Y71482122D01*
X47104991Y71482137D01*
X46686131Y71900997D01*
X46686126Y71901002D01*
X46618141Y71953814D01*
X46618140Y71953815D01*
X46539005Y71986594D01*
X46483049Y72009771D01*
X46461694Y72012454D01*
X46397633Y72020500D01*
X46397626Y72020501D01*
X44534371Y72020501D01*
X44448954Y72009772D01*
X44448950Y72009771D01*
X44313857Y71953814D01*
X44245878Y71901006D01*
X44245863Y71900992D01*
X43827003Y71482132D01*
X43826998Y71482126D01*
X43774185Y71414141D01*
X43718229Y71279049D01*
X43707500Y71193634D01*
X43707499Y71193627D01*
X43707499Y70030372D01*
X43718228Y69944955D01*
X43718229Y69944951D01*
X43774186Y69809858D01*
X43826994Y69741879D01*
X43827008Y69741864D01*
X44139191Y69429681D01*
X44172676Y69368358D01*
X44167692Y69298666D01*
X44139191Y69254319D01*
X43827003Y68942132D01*
X43826998Y68942126D01*
X43774185Y68874141D01*
X43718229Y68739049D01*
X43707500Y68653634D01*
X43707499Y68653627D01*
X43707499Y67490372D01*
X43718228Y67404955D01*
X43718229Y67404951D01*
X43774186Y67269858D01*
X43826994Y67201879D01*
X43827008Y67201864D01*
X44139191Y66889681D01*
X44172676Y66828358D01*
X44167692Y66758666D01*
X44139191Y66714319D01*
X43827003Y66402132D01*
X43826998Y66402126D01*
X43774185Y66334141D01*
X43718229Y66199049D01*
X43707500Y66113634D01*
X43707499Y66113627D01*
X43707499Y64950372D01*
X43718228Y64864955D01*
X43718229Y64864951D01*
X43774186Y64729858D01*
X43826994Y64661879D01*
X43827008Y64661864D01*
X44139191Y64349681D01*
X44172676Y64288358D01*
X44167692Y64218666D01*
X44139191Y64174319D01*
X43827003Y63862132D01*
X43826998Y63862126D01*
X43774185Y63794141D01*
X43718229Y63659049D01*
X43707500Y63573634D01*
X43707499Y63573627D01*
X43707499Y62410372D01*
X43718228Y62324955D01*
X43718229Y62324951D01*
X43774186Y62189858D01*
X43826994Y62121879D01*
X43827008Y62121864D01*
X44139191Y61809681D01*
X44172676Y61748358D01*
X44167692Y61678666D01*
X44139191Y61634319D01*
X43827003Y61322132D01*
X43826998Y61322126D01*
X43774185Y61254141D01*
X43718229Y61119049D01*
X43707500Y61033634D01*
X43707499Y61033627D01*
X43707499Y59870372D01*
X43718228Y59784955D01*
X43718229Y59784951D01*
X43774186Y59649858D01*
X43826994Y59581879D01*
X43827008Y59581864D01*
X44139191Y59269681D01*
X44172676Y59208358D01*
X44167692Y59138666D01*
X44139191Y59094319D01*
X43827003Y58782132D01*
X43826998Y58782126D01*
X43774185Y58714141D01*
X43718229Y58579049D01*
X43707500Y58493634D01*
X43707499Y58493627D01*
X43707499Y57330372D01*
X43718228Y57244955D01*
X43718229Y57244951D01*
X43774186Y57109858D01*
X43826994Y57041879D01*
X43826998Y57041875D01*
X43827003Y57041869D01*
X44245874Y56622998D01*
X44313859Y56570186D01*
X44448951Y56514229D01*
X44534370Y56503500D01*
X46397625Y56503499D01*
X46397633Y56503500D01*
X49657219Y56503500D01*
X49724258Y56483815D01*
X49744900Y56467181D01*
X52265657Y53946424D01*
X52422424Y53789657D01*
X52601785Y53659343D01*
X52651243Y53634143D01*
X52799319Y53558694D01*
X52799321Y53558694D01*
X52799324Y53558692D01*
X53010176Y53490182D01*
X53229149Y53455500D01*
X53229150Y53455500D01*
X56752850Y53455500D01*
X56752851Y53455500D01*
X56971824Y53490182D01*
X57000290Y53499432D01*
X57038608Y53505500D01*
X57540638Y53505500D01*
X57540654Y53505501D01*
X57601201Y53512011D01*
X57606164Y53513862D01*
X57675855Y53518848D01*
X57737179Y53485364D01*
X57770666Y53424042D01*
X57773500Y53397681D01*
X57773500Y52520320D01*
X57753815Y52453281D01*
X57701011Y52407526D01*
X57631853Y52397582D01*
X57606172Y52404136D01*
X57601203Y52405989D01*
X57540654Y52412500D01*
X57540638Y52412500D01*
X57038608Y52412500D01*
X57000290Y52418569D01*
X56983625Y52423984D01*
X56971822Y52427819D01*
X56794058Y52455974D01*
X56752851Y52462500D01*
X52447149Y52462500D01*
X52447144Y52462500D01*
X52258115Y52432560D01*
X52258114Y52432560D01*
X52228179Y52427820D01*
X52228173Y52427818D01*
X52181031Y52412501D01*
X52181032Y52412500D01*
X52017319Y52359307D01*
X51867321Y52282878D01*
X51819785Y52258657D01*
X51819784Y52258656D01*
X51811886Y52252918D01*
X51811885Y52252919D01*
X51811885Y52252918D01*
X51640429Y52128349D01*
X51640424Y52128345D01*
X49882424Y50370343D01*
X49725659Y50213579D01*
X49725659Y50213578D01*
X49725657Y50213576D01*
X49669692Y50136548D01*
X49595343Y50034216D01*
X49494693Y49836681D01*
X49426182Y49625825D01*
X49391500Y49406851D01*
X49391500Y47370782D01*
X49371815Y47303743D01*
X49355181Y47283101D01*
X48728900Y46656819D01*
X48667577Y46623334D01*
X48641219Y46620500D01*
X47142990Y46620500D01*
X47075951Y46640185D01*
X47030196Y46692989D01*
X47020252Y46762147D01*
X47049277Y46825703D01*
X47055309Y46832181D01*
X47105002Y46881874D01*
X47157814Y46949859D01*
X47213771Y47084951D01*
X47224500Y47170370D01*
X47224501Y48333625D01*
X47213771Y48419048D01*
X47157814Y48554140D01*
X47157813Y48554143D01*
X47105005Y48622122D01*
X47104991Y48622137D01*
X46686131Y49040997D01*
X46686126Y49041002D01*
X46618141Y49093814D01*
X46618140Y49093815D01*
X46523897Y49132851D01*
X46483049Y49149771D01*
X46461694Y49152454D01*
X46397633Y49160500D01*
X46397626Y49160501D01*
X44534371Y49160501D01*
X44448954Y49149772D01*
X44448950Y49149771D01*
X44313857Y49093814D01*
X44245878Y49041006D01*
X44245863Y49040992D01*
X43827003Y48622132D01*
X43826998Y48622126D01*
X43774185Y48554141D01*
X43718229Y48419049D01*
X43707500Y48333634D01*
X43707499Y48333627D01*
X43707499Y47170372D01*
X43718228Y47084955D01*
X43718229Y47084951D01*
X43774186Y46949858D01*
X43826994Y46881879D01*
X43827008Y46881864D01*
X44139191Y46569681D01*
X44172676Y46508358D01*
X44167692Y46438666D01*
X44139191Y46394319D01*
X43827003Y46082132D01*
X43826998Y46082126D01*
X43774185Y46014141D01*
X43718229Y45879049D01*
X43707500Y45793634D01*
X43707499Y45793627D01*
X43707499Y44630372D01*
X43718228Y44544955D01*
X43718229Y44544951D01*
X43774186Y44409858D01*
X43826994Y44341879D01*
X43827008Y44341864D01*
X44139191Y44029681D01*
X44172676Y43968358D01*
X44167692Y43898666D01*
X44139191Y43854319D01*
X43827003Y43542132D01*
X43826998Y43542126D01*
X43774185Y43474141D01*
X43718229Y43339049D01*
X43707500Y43253634D01*
X43707499Y43253627D01*
X43707499Y42090372D01*
X43718228Y42004955D01*
X43718229Y42004951D01*
X43774186Y41869858D01*
X43826994Y41801879D01*
X43827008Y41801864D01*
X44139191Y41489681D01*
X44172676Y41428358D01*
X44167692Y41358666D01*
X44139191Y41314319D01*
X43827003Y41002132D01*
X43826998Y41002126D01*
X43774185Y40934141D01*
X43718229Y40799049D01*
X43707500Y40713634D01*
X43707499Y40713627D01*
X43707499Y39550372D01*
X43718228Y39464955D01*
X43718229Y39464951D01*
X43774186Y39329858D01*
X43826994Y39261879D01*
X43827008Y39261864D01*
X44139191Y38949681D01*
X44172676Y38888358D01*
X44167692Y38818666D01*
X44139191Y38774319D01*
X43827003Y38462132D01*
X43826998Y38462126D01*
X43774185Y38394141D01*
X43718229Y38259049D01*
X43707500Y38173634D01*
X43707499Y38173627D01*
X43707499Y37010372D01*
X43718228Y36924955D01*
X43718229Y36924951D01*
X43774186Y36789858D01*
X43826994Y36721879D01*
X43827008Y36721864D01*
X44139191Y36409681D01*
X44172676Y36348358D01*
X44167692Y36278666D01*
X44139191Y36234319D01*
X43827003Y35922132D01*
X43826998Y35922126D01*
X43774185Y35854141D01*
X43718229Y35719049D01*
X43707500Y35633634D01*
X43707499Y35633627D01*
X43707499Y34470372D01*
X43718228Y34384955D01*
X43718229Y34384951D01*
X43774186Y34249858D01*
X43826994Y34181879D01*
X43826998Y34181875D01*
X43827003Y34181869D01*
X44245874Y33762998D01*
X44313859Y33710186D01*
X44448951Y33654229D01*
X44534370Y33643500D01*
X46397625Y33643499D01*
X46483048Y33654229D01*
X46618140Y33710186D01*
X46618140Y33710187D01*
X46618142Y33710187D01*
X46686121Y33762995D01*
X46686122Y33762997D01*
X46686131Y33763003D01*
X47105002Y34181874D01*
X47157814Y34249859D01*
X47213771Y34384951D01*
X47224500Y34470370D01*
X47224501Y35633625D01*
X47213771Y35719048D01*
X47157814Y35854140D01*
X47157813Y35854143D01*
X47105005Y35922122D01*
X47104991Y35922137D01*
X46792809Y36234319D01*
X46759324Y36295642D01*
X46764308Y36365334D01*
X46792809Y36409681D01*
X46845955Y36462827D01*
X47105002Y36721874D01*
X47157814Y36789859D01*
X47213771Y36924951D01*
X47224500Y37010370D01*
X47224501Y38173625D01*
X47213771Y38259048D01*
X47157814Y38394140D01*
X47157813Y38394143D01*
X47105005Y38462122D01*
X47104991Y38462137D01*
X47055309Y38511819D01*
X47021824Y38573142D01*
X47026808Y38642834D01*
X47068680Y38698767D01*
X47134144Y38723184D01*
X47142990Y38723500D01*
X53450850Y38723500D01*
X53450851Y38723500D01*
X53669824Y38758182D01*
X53880676Y38826692D01*
X54078215Y38927343D01*
X54257576Y39057657D01*
X54414343Y39214424D01*
X54472902Y39272983D01*
X54472915Y39272997D01*
X57561820Y42361902D01*
X57623142Y42395385D01*
X57692834Y42390401D01*
X57748767Y42348529D01*
X57773184Y42283065D01*
X57773500Y42274219D01*
X57773500Y33908781D01*
X57753815Y33841742D01*
X57737181Y33821100D01*
X56602900Y32686819D01*
X56541577Y32653334D01*
X56515219Y32650500D01*
X55135094Y32650500D01*
X55068055Y32670185D01*
X55030779Y32707460D01*
X55014158Y32733322D01*
X54986871Y32775782D01*
X54986865Y32775789D01*
X54941120Y32828582D01*
X54941117Y32828585D01*
X54830664Y32924295D01*
X54830658Y32924299D01*
X54697716Y32985013D01*
X54630671Y33004700D01*
X54582446Y33011634D01*
X54486000Y33025500D01*
X54485998Y33025500D01*
X42547500Y33025500D01*
X42480461Y33045185D01*
X42434706Y33097989D01*
X42423500Y33149500D01*
X42423500Y36197990D01*
X42423500Y36198000D01*
X42411764Y36307157D01*
X42400558Y36358668D01*
X42383579Y36409681D01*
X42365893Y36462821D01*
X42365890Y36462827D01*
X42286871Y36585782D01*
X42286865Y36585789D01*
X42241120Y36638582D01*
X42241117Y36638585D01*
X42130664Y36734295D01*
X42130658Y36734299D01*
X41997716Y36795013D01*
X41930671Y36814700D01*
X41882446Y36821634D01*
X41786000Y36835500D01*
X41785998Y36835500D01*
X24483085Y36835500D01*
X24416046Y36855185D01*
X24370291Y36907989D01*
X24360052Y36974952D01*
X24364499Y37010362D01*
X24364499Y37010363D01*
X24364500Y37010370D01*
X24364501Y38173625D01*
X24353771Y38259048D01*
X24297814Y38394140D01*
X24297813Y38394143D01*
X24245005Y38462122D01*
X24244991Y38462137D01*
X23826131Y38880997D01*
X23826126Y38881002D01*
X23758141Y38933814D01*
X23758140Y38933815D01*
X23679005Y38966594D01*
X23623049Y38989771D01*
X23601694Y38992454D01*
X23537633Y39000500D01*
X23537626Y39000501D01*
X21674371Y39000501D01*
X21588954Y38989772D01*
X21588950Y38989771D01*
X21453857Y38933814D01*
X21385878Y38881006D01*
X21385863Y38880992D01*
X20967003Y38462132D01*
X20966998Y38462126D01*
X20914185Y38394141D01*
X20858229Y38259049D01*
X20847500Y38173634D01*
X20847499Y38173627D01*
X20847499Y37010371D01*
X20851948Y36974954D01*
X20840772Y36905984D01*
X20794082Y36854005D01*
X20728915Y36835500D01*
X9914500Y36835500D01*
X9847461Y36855185D01*
X9801706Y36907989D01*
X9790500Y36959500D01*
X9790500Y43745681D01*
X9810185Y43812720D01*
X9862989Y43858475D01*
X9932147Y43868419D01*
X9957836Y43861862D01*
X9962798Y43860011D01*
X10023345Y43853501D01*
X10023362Y43853500D01*
X10525392Y43853500D01*
X10563709Y43847432D01*
X10592176Y43838182D01*
X10811149Y43803500D01*
X20929010Y43803500D01*
X20996049Y43783815D01*
X21041804Y43731011D01*
X21051748Y43661853D01*
X21022723Y43598297D01*
X21016691Y43591819D01*
X20967003Y43542132D01*
X20966998Y43542126D01*
X20914185Y43474141D01*
X20858229Y43339049D01*
X20847500Y43253634D01*
X20847499Y43253627D01*
X20847499Y42090372D01*
X20858228Y42004955D01*
X20858229Y42004951D01*
X20914186Y41869858D01*
X20966994Y41801879D01*
X20966998Y41801875D01*
X20967003Y41801869D01*
X21385874Y41382998D01*
X21453859Y41330186D01*
X21588951Y41274229D01*
X21674370Y41263500D01*
X23537625Y41263499D01*
X23623048Y41274229D01*
X23758140Y41330186D01*
X23758140Y41330187D01*
X23758142Y41330187D01*
X23826121Y41382995D01*
X23826122Y41382997D01*
X23826131Y41383003D01*
X24245002Y41801874D01*
X24297814Y41869859D01*
X24353771Y42004951D01*
X24364500Y42090370D01*
X24364501Y43253625D01*
X24353771Y43339048D01*
X24297814Y43474140D01*
X24297813Y43474143D01*
X24245005Y43542122D01*
X24244991Y43542137D01*
X23932809Y43854319D01*
X23899324Y43915642D01*
X23904308Y43985334D01*
X23932809Y44029681D01*
X24040789Y44137661D01*
X24245002Y44341874D01*
X24297814Y44409859D01*
X24353771Y44544951D01*
X24364500Y44630370D01*
X24364501Y45793625D01*
X24353771Y45879048D01*
X24297814Y46014140D01*
X24297813Y46014143D01*
X24245005Y46082122D01*
X24244991Y46082137D01*
X23932809Y46394319D01*
X23899324Y46455642D01*
X23904308Y46525334D01*
X23932809Y46569681D01*
X24064294Y46701166D01*
X24245002Y46881874D01*
X24297814Y46949859D01*
X24353771Y47084951D01*
X24364500Y47170370D01*
X24364501Y48333625D01*
X24353771Y48419048D01*
X24297814Y48554140D01*
X24297813Y48554143D01*
X24245005Y48622122D01*
X24244991Y48622137D01*
X23932809Y48934319D01*
X23899324Y48995642D01*
X23904308Y49065334D01*
X23932809Y49109681D01*
X24064294Y49241166D01*
X24245002Y49421874D01*
X24297814Y49489859D01*
X24353771Y49624951D01*
X24364500Y49710370D01*
X24364501Y50873625D01*
X24353771Y50959048D01*
X24297814Y51094140D01*
X24297813Y51094143D01*
X24245005Y51162122D01*
X24244991Y51162137D01*
X23932809Y51474319D01*
X23899324Y51535642D01*
X23904308Y51605334D01*
X23932809Y51649681D01*
X24040789Y51757661D01*
X24245002Y51961874D01*
X24297814Y52029859D01*
X24353771Y52164951D01*
X24364500Y52250370D01*
X24364501Y53413625D01*
X24364501Y53413627D01*
X43707499Y53413627D01*
X43707499Y52250372D01*
X43718228Y52164955D01*
X43718229Y52164951D01*
X43774186Y52029858D01*
X43826994Y51961879D01*
X43826998Y51961875D01*
X43827003Y51961869D01*
X44245874Y51542998D01*
X44313859Y51490186D01*
X44448951Y51434229D01*
X44534370Y51423500D01*
X46397625Y51423499D01*
X46483048Y51434229D01*
X46618140Y51490186D01*
X46618140Y51490187D01*
X46618142Y51490187D01*
X46686121Y51542995D01*
X46686122Y51542997D01*
X46686131Y51543003D01*
X47105002Y51961874D01*
X47157814Y52029859D01*
X47213771Y52164951D01*
X47224500Y52250370D01*
X47224501Y53413625D01*
X47213771Y53499048D01*
X47187235Y53563111D01*
X47157813Y53634143D01*
X47105005Y53702122D01*
X47104991Y53702137D01*
X46686131Y54120997D01*
X46686126Y54121002D01*
X46618141Y54173814D01*
X46618140Y54173815D01*
X46529228Y54210643D01*
X46483049Y54229771D01*
X46461694Y54232454D01*
X46397633Y54240500D01*
X46397626Y54240501D01*
X44534371Y54240501D01*
X44448954Y54229772D01*
X44448950Y54229771D01*
X44313857Y54173814D01*
X44245878Y54121006D01*
X44245863Y54120992D01*
X43827003Y53702132D01*
X43826998Y53702126D01*
X43774185Y53634141D01*
X43718229Y53499049D01*
X43707500Y53413634D01*
X43707499Y53413627D01*
X24364501Y53413627D01*
X24353771Y53499048D01*
X24327235Y53563111D01*
X24297813Y53634143D01*
X24245005Y53702122D01*
X24244991Y53702137D01*
X23932809Y54014319D01*
X23899324Y54075642D01*
X23904308Y54145334D01*
X23932809Y54189681D01*
X24041448Y54298320D01*
X24245002Y54501874D01*
X24297814Y54569859D01*
X24353771Y54704951D01*
X24364500Y54790370D01*
X24364501Y55953625D01*
X24353771Y56039048D01*
X24297814Y56174140D01*
X24297813Y56174143D01*
X24245005Y56242122D01*
X24244991Y56242137D01*
X23932809Y56554319D01*
X23899324Y56615642D01*
X23904308Y56685334D01*
X23932809Y56729681D01*
X24245002Y57041874D01*
X24297814Y57109859D01*
X24353771Y57244951D01*
X24364500Y57330370D01*
X24364501Y58493625D01*
X24353771Y58579048D01*
X24297814Y58714140D01*
X24297813Y58714143D01*
X24245005Y58782122D01*
X24244991Y58782137D01*
X23932809Y59094319D01*
X23899324Y59155642D01*
X23904308Y59225334D01*
X23932809Y59269681D01*
X24245002Y59581874D01*
X24297814Y59649859D01*
X24353771Y59784951D01*
X24364500Y59870370D01*
X24364501Y61033625D01*
X24353771Y61119048D01*
X24324292Y61190216D01*
X24297813Y61254143D01*
X24245005Y61322122D01*
X24244991Y61322137D01*
X23932809Y61634319D01*
X23899324Y61695642D01*
X23904308Y61765334D01*
X23932809Y61809681D01*
X24064294Y61941166D01*
X24245002Y62121874D01*
X24297814Y62189859D01*
X24353771Y62324951D01*
X24364500Y62410370D01*
X24364501Y63573625D01*
X24353771Y63659048D01*
X24297814Y63794140D01*
X24297813Y63794143D01*
X24245005Y63862122D01*
X24244991Y63862137D01*
X23932809Y64174319D01*
X23899324Y64235642D01*
X23904308Y64305334D01*
X23932809Y64349681D01*
X24071228Y64488100D01*
X24245002Y64661874D01*
X24297814Y64729859D01*
X24353771Y64864951D01*
X24364500Y64950370D01*
X24364501Y66113625D01*
X24353771Y66199048D01*
X24297814Y66334140D01*
X24297813Y66334143D01*
X24245005Y66402122D01*
X24244991Y66402137D01*
X23826131Y66820997D01*
X23826126Y66821002D01*
X23758141Y66873814D01*
X23758140Y66873815D01*
X23679005Y66906594D01*
X23623049Y66929771D01*
X23601694Y66932454D01*
X23537633Y66940500D01*
X23537626Y66940501D01*
X21674371Y66940501D01*
X21588954Y66929772D01*
X21588950Y66929771D01*
X21453857Y66873814D01*
X21385878Y66821006D01*
X21385863Y66820992D01*
X20967003Y66402132D01*
X20966998Y66402126D01*
X20914185Y66334141D01*
X20858229Y66199049D01*
X20847500Y66113634D01*
X20847499Y66113627D01*
X20847499Y64950372D01*
X20858228Y64864955D01*
X20858229Y64864951D01*
X20914186Y64729858D01*
X20966994Y64661879D01*
X20967008Y64661864D01*
X21279191Y64349681D01*
X21312676Y64288358D01*
X21307692Y64218666D01*
X21279191Y64174319D01*
X20967003Y63862132D01*
X20966998Y63862126D01*
X20914185Y63794141D01*
X20858229Y63659049D01*
X20847500Y63573634D01*
X20847499Y63573627D01*
X20847499Y62410372D01*
X20858228Y62324955D01*
X20858229Y62324951D01*
X20914186Y62189858D01*
X20966994Y62121879D01*
X20967008Y62121864D01*
X21016691Y62072181D01*
X21050176Y62010858D01*
X21045192Y61941166D01*
X21003320Y61885233D01*
X20937856Y61860816D01*
X20929010Y61860500D01*
X10811149Y61860500D01*
X10776468Y61855008D01*
X10592177Y61825819D01*
X10575744Y61820480D01*
X10563709Y61816569D01*
X10525392Y61810500D01*
X10023345Y61810500D01*
X9962797Y61803989D01*
X9962795Y61803989D01*
X9825795Y61752889D01*
X9708739Y61665261D01*
X9621111Y61548205D01*
X9595252Y61478875D01*
X9553380Y61422942D01*
X9487916Y61398526D01*
X9419643Y61413378D01*
X9391390Y61434529D01*
X9299578Y61526341D01*
X9299576Y61526343D01*
X9120215Y61656657D01*
X9043703Y61695642D01*
X8922680Y61757307D01*
X8711824Y61825818D01*
X8711818Y61825819D01*
X8492851Y61860500D01*
X8271149Y61860500D01*
X8161662Y61843159D01*
X8052175Y61825818D01*
X7841319Y61757307D01*
X7643784Y61656657D01*
X7543093Y61583500D01*
X7464424Y61526343D01*
X7464422Y61526341D01*
X7464421Y61526341D01*
X7307659Y61369579D01*
X7307659Y61369578D01*
X7307657Y61369576D01*
X7255684Y61298042D01*
X7177343Y61190216D01*
X7076693Y60992681D01*
X7008182Y60781825D01*
X6973500Y60562851D01*
X500Y60562851D01*
X500Y74797289D01*
X1959500Y74797289D01*
X1959500Y74554712D01*
X1991161Y74314215D01*
X2053947Y74079896D01*
X2146773Y73855795D01*
X2146776Y73855788D01*
X2268064Y73645711D01*
X2268066Y73645708D01*
X2268067Y73645707D01*
X2415733Y73453264D01*
X2415739Y73453257D01*
X2587256Y73281740D01*
X2587262Y73281735D01*
X2779711Y73134064D01*
X2989788Y73012776D01*
X3213900Y72919946D01*
X3448211Y72857162D01*
X3628586Y72833416D01*
X3688711Y72825500D01*
X3688712Y72825500D01*
X3931289Y72825500D01*
X3979388Y72831833D01*
X4171789Y72857162D01*
X4406100Y72919946D01*
X4630212Y73012776D01*
X4840289Y73134064D01*
X5032738Y73281735D01*
X5204265Y73453262D01*
X5351936Y73645711D01*
X5473224Y73855788D01*
X5566054Y74079900D01*
X5628838Y74314211D01*
X5660500Y74554712D01*
X5660500Y74797288D01*
X5660500Y74797289D01*
X66729500Y74797289D01*
X66729500Y74554712D01*
X66761161Y74314215D01*
X66823947Y74079896D01*
X66916773Y73855795D01*
X66916776Y73855788D01*
X67038064Y73645711D01*
X67038066Y73645708D01*
X67038067Y73645707D01*
X67185733Y73453264D01*
X67185739Y73453257D01*
X67357256Y73281740D01*
X67357262Y73281735D01*
X67549711Y73134064D01*
X67759788Y73012776D01*
X67983900Y72919946D01*
X68218211Y72857162D01*
X68398586Y72833416D01*
X68458711Y72825500D01*
X68458712Y72825500D01*
X68701289Y72825500D01*
X68749388Y72831833D01*
X68941789Y72857162D01*
X69176100Y72919946D01*
X69400212Y73012776D01*
X69610289Y73134064D01*
X69802738Y73281735D01*
X69974265Y73453262D01*
X70121936Y73645711D01*
X70243224Y73855788D01*
X70336054Y74079900D01*
X70398838Y74314211D01*
X70430500Y74554712D01*
X70430500Y74797288D01*
X70398838Y75037789D01*
X70336054Y75272100D01*
X70243224Y75496212D01*
X70121936Y75706289D01*
X69974265Y75898738D01*
X69974260Y75898744D01*
X69802743Y76070261D01*
X69802736Y76070267D01*
X69610293Y76217933D01*
X69610292Y76217934D01*
X69610289Y76217936D01*
X69400212Y76339224D01*
X69400205Y76339227D01*
X69176104Y76432053D01*
X68941785Y76494839D01*
X68701289Y76526500D01*
X68701288Y76526500D01*
X68458712Y76526500D01*
X68458711Y76526500D01*
X68218214Y76494839D01*
X67983895Y76432053D01*
X67759794Y76339227D01*
X67759785Y76339223D01*
X67549706Y76217933D01*
X67357263Y76070267D01*
X67357256Y76070261D01*
X67185739Y75898744D01*
X67185733Y75898737D01*
X67038067Y75706294D01*
X66916777Y75496215D01*
X66916773Y75496206D01*
X66823947Y75272105D01*
X66761161Y75037786D01*
X66729500Y74797289D01*
X5660500Y74797289D01*
X5628838Y75037789D01*
X5566054Y75272100D01*
X5473224Y75496212D01*
X5351936Y75706289D01*
X5204265Y75898738D01*
X5204260Y75898744D01*
X5032743Y76070261D01*
X5032736Y76070267D01*
X4840293Y76217933D01*
X4840292Y76217934D01*
X4840289Y76217936D01*
X4630212Y76339224D01*
X4630205Y76339227D01*
X4406104Y76432053D01*
X4171785Y76494839D01*
X3931289Y76526500D01*
X3931288Y76526500D01*
X3688712Y76526500D01*
X3688711Y76526500D01*
X3448214Y76494839D01*
X3213895Y76432053D01*
X2989794Y76339227D01*
X2989785Y76339223D01*
X2779706Y76217933D01*
X2587263Y76070267D01*
X2587256Y76070261D01*
X2415739Y75898744D01*
X2415733Y75898737D01*
X2268067Y75706294D01*
X2146777Y75496215D01*
X2146773Y75496206D01*
X2053947Y75272105D01*
X1991161Y75037786D01*
X1959500Y74797289D01*
X500Y74797289D01*
X500Y78107500D01*
X20185Y78174539D01*
X72989Y78220294D01*
X124500Y78231500D01*
X73027500Y78231500D01*
X73094539Y78211815D01*
G37*
%TD.AperFunction*%
%TD*%
M02*
